<svg width="23" height="13" viewBox="0 0 23 13" fill="none" xmlns="http://www.w3.org/2000/svg">
<rect x="1.51465" y="6.27588" width="20" height="6.99382e-07" stroke="black" stroke-width="6.99382e-07"/>
<path d="M0.948963 5.71019C0.636544 6.02261 0.636544 6.52914 0.948963 6.84156L6.04013 11.9327C6.35255 12.2452 6.85908 12.2452 7.1715 11.9327C7.48392 11.6203 7.48392 11.1138 7.1715 10.8014L2.64602 6.27588L7.1715 1.75039C7.48392 1.43798 7.48392 0.931444 7.1715 0.619024C6.85908 0.306605 6.35255 0.306605 6.04013 0.619024L0.948963 5.71019ZM21.5146 7.07588C21.9565 7.07588 22.3146 6.7177 22.3146 6.27588C22.3146 5.83405 21.9565 5.47588 21.5146 5.47588L21.5146 7.07588ZM1.51465 7.07588L21.5146 7.07588L21.5146 5.47588L1.51465 5.47588L1.51465 7.07588Z" fill="white"/>
</svg>
