<svg width="160" height="161" viewBox="0 0 160 161" fill="none" xmlns="http://www.w3.org/2000/svg">
<path d="M80 160.347C124.183 160.347 160 124.53 160 80.3472C160 36.1644 124.183 0.347168 80 0.347168C35.8172 0.347168 0 36.1644 0 80.3472C0 124.53 35.8172 160.347 80 160.347Z" fill="#EEF2F5"/>
<path fill-rule="evenodd" clip-rule="evenodd" d="M76.4846 34.805C58.7967 34.805 44.4578 49.1439 44.4578 66.8318C44.4578 84.5197 58.7967 98.8586 76.4846 98.8586C94.1726 98.8586 108.511 84.5197 108.511 66.8318C108.511 49.1439 94.1726 34.805 76.4846 34.805ZM36 66.8318C36 44.4727 54.1256 26.3472 76.4846 26.3472C98.8437 26.3472 116.969 44.4727 116.969 66.8318C116.969 89.1908 98.8437 107.316 76.4846 107.316C54.1256 107.316 36 89.1908 36 66.8318Z" fill="#00141D"/>
<path d="M154.836 145.834C152.248 148.602 147.818 148.762 145.063 146.187L106.094 109.757C103.34 107.182 103.201 102.751 105.789 99.9825C108.377 97.2142 112.808 97.054 115.563 99.6292L154.531 136.059C157.286 138.634 157.424 143.065 154.836 145.834Z" fill="#2B9CD3"/>
<path d="M91.4716 50.7396C92.6733 51.9413 92.6782 53.9294 91.4825 55.1252L66.8919 80.4237C65.6962 81.6195 63.7081 81.6146 62.5064 80.4129C61.3047 79.2112 61.2997 77.223 62.4955 76.0273L87.086 50.7287C88.2818 49.533 90.2699 49.5379 91.4716 50.7396Z" fill="#2B9CD3"/>
<path d="M62.5064 50.7396C61.3047 51.9413 61.2998 53.9294 62.4956 55.1252L87.0861 80.4237C88.2818 81.6195 90.27 81.6146 91.4717 80.4129C92.6734 79.2112 92.6783 77.223 91.4825 76.0273L66.892 50.7287C65.6963 49.533 63.7081 49.5379 62.5064 50.7396Z" fill="#2B9CD3"/>
</svg>
