<svg width="152" height="151" viewBox="0 0 152 151" fill="none" xmlns="http://www.w3.org/2000/svg">
<path d="M76.8237 150.644C118.245 150.644 151.824 117.065 151.824 75.6436C151.824 34.2222 118.245 0.643555 76.8237 0.643555C35.4024 0.643555 1.82373 34.2222 1.82373 75.6436C1.82373 117.065 35.4024 150.644 76.8237 150.644Z" fill="#EEF2F5"/>
<path fill-rule="evenodd" clip-rule="evenodd" d="M76.8241 17.1272C54.5203 17.1272 36.4395 35.208 36.4395 57.5118C36.4395 79.8156 54.5203 97.8964 76.8241 97.8964C99.1279 97.8964 117.209 79.8156 117.209 57.5118C117.209 35.208 99.1279 17.1272 76.8241 17.1272ZM112.803 57.5117C112.803 77.3823 96.6949 93.4907 76.8243 93.4907C56.9536 93.4907 40.8452 77.3823 40.8452 57.5117C40.8452 37.641 56.9536 21.5326 76.8243 21.5326C96.6949 21.5326 112.803 37.641 112.803 57.5117Z" fill="#00141D"/>
<path d="M72.4506 38.2817C73.1845 39.0156 73.1875 40.2298 72.4573 40.9601L57.4395 56.4102C56.7092 57.1405 55.495 57.1375 54.7612 56.4036C54.0273 55.6697 54.0243 54.4555 54.7545 53.7253L69.7723 38.2751C70.5026 37.5448 71.7167 37.5478 72.4506 38.2817Z" fill="#2B9CD3"/>
<path d="M54.7606 38.2817C54.0267 39.0156 54.0236 40.2298 54.7539 40.9601L69.7717 56.4102C70.502 57.1405 71.7161 57.1375 72.45 56.4036C73.1839 55.6697 73.1869 54.4555 72.4567 53.7253L57.4389 38.2751C56.7086 37.5448 55.4944 37.5478 54.7606 38.2817Z" fill="#2B9CD3"/>
<path d="M99.8824 38.2817C100.616 39.0156 100.619 40.2298 99.889 40.9601L84.8712 56.4102C84.141 57.1405 82.9268 57.1375 82.1929 56.4036C81.459 55.6697 81.456 54.4555 82.1863 53.7253L97.2041 38.2751C97.9343 37.5448 99.1485 37.5478 99.8824 38.2817Z" fill="#2B9CD3"/>
<path d="M82.1922 38.2817C81.4583 39.0156 81.4553 40.2298 82.1856 40.9601L97.2033 56.4102C97.9336 57.1405 99.1478 57.1375 99.8817 56.4036C100.616 55.6697 100.619 54.4555 99.8883 53.7253L84.8705 38.2751C84.1403 37.5448 82.9261 37.5478 82.1922 38.2817Z" fill="#2B9CD3"/>
<path d="M61.1121 73.3934C61.1348 74.6912 62.2246 75.7487 63.516 75.726L90.4619 75.6359C91.7533 75.6133 92.8053 74.5183 92.7826 73.2205C92.7598 71.9227 91.6701 70.8652 90.3787 70.8879L63.4327 70.978C62.1413 71.0006 61.0893 72.0956 61.1121 73.3934Z" fill="#00141D"/>
<rect width="6.59341" height="3.2967" rx="1.64835" transform="matrix(-4.37114e-08 1 1 4.37114e-08 74.3516 109.435)" fill="#00141D"/>
<rect x="74.3516" y="138.836" width="8.24176" height="3.2967" rx="1.64835" transform="rotate(-90 74.3516 138.836)" fill="#00141D"/>
<rect x="0.175537" y="120.973" width="70.8791" height="4.94506" rx="2.47253" fill="#2B9CD3"/>
<rect x="66.9398" y="113.327" width="7.3389" height="3.14524" rx="1.57262" transform="rotate(30 66.9398 113.327)" fill="#00141D"/>
<rect width="7.3389" height="3.14524" rx="1.57262" transform="matrix(0.866025 -0.5 -0.5 -0.866025 66.9398 133.96)" fill="#00141D"/>
<rect width="7.3389" height="3.14524" rx="1.57262" transform="matrix(-0.866025 0.5 0.5 0.866025 84.3171 113.327)" fill="#00141D"/>
<rect x="84.3171" y="133.96" width="7.3389" height="3.14524" rx="1.57262" transform="rotate(-150 84.3171 133.96)" fill="#00141D"/>
<rect x="80.9452" y="120.973" width="70.8791" height="4.94506" rx="2.47253" fill="#2B9CD3"/>
</svg>
