<svg width="25" height="25" viewBox="0 0 25 25" fill="none" xmlns="http://www.w3.org/2000/svg">
<g clip-path="url(#clip0_1026_2669)">
<path d="M5.62127 0.500021C2.66852 0.491771 0.273021 2.88727 0.281271 5.84002V19.16C0.273021 22.1128 2.66852 24.5083 5.62127 24.5H18.9413C21.894 24.5083 24.2895 22.1128 24.2813 19.16V5.84002C24.2895 2.88727 21.894 0.491771 18.9413 0.500021H5.62127ZM12.144 3.06577C14.4803 3.06577 16.593 3.96877 18.2033 5.65552C19.4265 6.92527 20.1135 8.27227 20.4653 10.0468C20.586 10.637 20.586 12.2458 20.472 12.9095C20.097 15.0223 18.9413 16.9138 17.2343 18.2068C16.6253 18.668 15.1365 19.469 14.898 19.469C14.808 19.469 14.8013 19.379 14.8403 19.0078C14.9145 18.4138 14.9843 18.293 15.3203 18.152C15.855 17.93 16.7693 17.2768 17.328 16.7188C18.3038 15.7415 18.9998 14.5198 19.3358 13.1795C19.5465 12.3545 19.5188 10.5223 19.2885 9.67552C18.5618 6.97927 16.3583 4.88677 13.6635 4.32352C12.8828 4.16377 11.4563 4.16377 10.6635 4.32352C7.93652 4.88677 5.67827 7.08577 4.99127 9.85177C4.80752 10.6048 4.80752 12.4378 4.99127 13.1878C5.44802 15.02 6.63227 16.6985 8.18252 17.699C8.48777 17.9023 8.85452 18.1093 9.00752 18.1723C9.34277 18.3163 9.41777 18.4385 9.47927 19.0273C9.51827 19.391 9.51002 19.4923 9.42527 19.4923C9.37052 19.4923 8.96027 19.316 8.52602 19.109L8.48702 19.0783C6.01427 17.8633 4.43177 15.8053 3.85427 13.0663C3.71402 12.359 3.68627 10.676 3.82727 10.0273C4.18652 8.28502 4.87427 6.92602 6.01802 5.72302C7.66727 3.98377 9.78827 3.06577 12.147 3.06577H12.144ZM12.2813 5.87902C12.687 5.88277 13.0823 5.91802 13.386 5.98402C16.1723 6.60502 18.144 9.39127 17.7608 12.1558C17.6085 13.2725 17.226 14.1875 16.5465 15.0388C16.2105 15.4685 15.3938 16.1878 15.2498 16.1878C15.2258 16.1878 15.2025 15.914 15.2025 15.5855V14.9795L15.6165 14.4838C17.1863 12.605 17.0738 9.98002 15.3623 8.26177C14.6985 7.58977 13.9283 7.19452 12.936 7.01602C12.2963 6.89527 12.1628 6.89527 11.4908 7.00777C10.4678 7.17202 9.67802 7.56577 8.97452 8.26177C7.25627 9.96502 7.14227 12.605 8.71352 14.4838L9.12752 14.9795V15.5893C9.12752 15.9253 9.09977 16.1945 9.06452 16.1945C9.03752 16.1945 8.80277 16.0348 8.55227 15.8353L8.51702 15.8233C7.68527 15.1595 6.95102 13.9835 6.64577 12.827C6.46277 12.128 6.46277 10.8043 6.65402 10.1083C7.15802 8.22952 8.54477 6.77227 10.4633 6.08902C10.8735 5.94427 11.595 5.86627 12.2753 5.87827L12.2813 5.87902ZM12.1485 8.86702C12.4613 8.86702 12.7695 8.93002 12.9968 9.04702C13.4805 9.30127 13.884 9.78877 14.0355 10.3048C14.5005 11.8828 12.8288 13.2658 11.3123 12.5585H11.301C10.5863 12.2263 10.203 11.6015 10.1948 10.7885C10.1948 10.0543 10.6005 9.41752 11.3078 9.04252C11.5305 8.92552 11.8395 8.86627 12.1515 8.86627L12.1485 8.86702ZM12.1403 13.598C13.1295 13.5943 13.8435 13.9453 14.109 14.5663C14.3078 15.0313 14.2343 16.496 13.89 18.8675C13.6598 20.5235 13.5308 20.9413 13.2113 21.2233C12.7695 21.6133 12.1485 21.7235 11.5545 21.512H11.5515C10.8368 21.254 10.6838 20.906 10.3868 18.8668C10.0478 16.496 9.97277 15.0305 10.173 14.5655C10.434 13.9483 11.145 13.6018 12.141 13.5973L12.1403 13.598Z" fill="white"/>
</g>
<defs>
<clipPath id="clip0_1026_2669">
<rect width="24" height="24" fill="white" transform="translate(0.28125 0.5)"/>
</clipPath>
</defs>
</svg>
