<svg width="32" height="32" viewBox="0 0 32 32" fill="none" xmlns="http://www.w3.org/2000/svg">
<path fill-rule="evenodd" clip-rule="evenodd" d="M6.93652 18.7432C6.93652 18.329 7.27231 17.9932 7.68652 17.9932H24.6065C25.0207 17.9932 25.3565 18.329 25.3565 18.7432V30.9132C25.3565 31.3274 25.0207 31.6632 24.6065 31.6632C24.1923 31.6632 23.8565 31.3274 23.8565 30.9132V19.4932H8.43652V30.9132C8.43652 31.3274 8.10074 31.6632 7.68652 31.6632C7.27231 31.6632 6.93652 31.3274 6.93652 30.9132V18.7432Z" fill="#001323"/>
<path fill-rule="evenodd" clip-rule="evenodd" d="M0.396484 16.3936C0.396484 15.9793 0.732271 15.6436 1.14648 15.6436H31.1465C31.5607 15.6436 31.8965 15.9793 31.8965 16.3936C31.8965 16.8078 31.5607 17.1436 31.1465 17.1436H1.14648C0.732271 17.1436 0.396484 16.8078 0.396484 16.3936Z" fill="#1BA0E5"/>
<path fill-rule="evenodd" clip-rule="evenodd" d="M13.3669 7.87299C13.6597 8.16588 13.6597 8.64076 13.3669 8.93365L11.4365 10.864V13.8533C11.4365 14.2675 11.1007 14.6033 10.6865 14.6033C10.2723 14.6033 9.93652 14.2675 9.93652 13.8533V10.2427L12.3062 7.87299C12.5991 7.5801 13.074 7.5801 13.3669 7.87299Z" fill="#001323"/>
<path fill-rule="evenodd" clip-rule="evenodd" d="M18.4149 2.99621C17.9463 2.52759 17.1865 2.52759 16.7179 2.99622L15.1552 4.55892C14.6865 5.02755 14.6865 5.78735 15.1552 6.25598L15.1622 6.26305C15.6309 6.73168 16.3907 6.73168 16.8593 6.26305L18.422 4.70034C18.8906 4.23171 18.8906 3.47191 18.422 3.00329L18.4149 2.99621ZM15.6572 1.93556C16.7116 0.881141 18.4212 0.881138 19.4756 1.93555L19.4827 1.94263C20.5371 2.99704 20.5371 4.70659 19.4827 5.761L17.92 7.32371C16.8655 8.37812 15.156 8.37813 14.1016 7.32371L14.0945 7.31664C13.0401 6.26222 13.0401 4.55268 14.0945 3.49826L15.6572 1.93556Z" fill="#001323"/>
</svg>
