<svg width="33" height="32" viewBox="0 0 33 32" fill="none" xmlns="http://www.w3.org/2000/svg">
<path fill-rule="evenodd" clip-rule="evenodd" d="M17.8545 4.16016C17.8545 3.74594 18.1903 3.41016 18.6045 3.41016H22.8345C23.2487 3.41016 23.5845 3.74594 23.5845 4.16016C23.5845 4.57437 23.2487 4.91016 22.8345 4.91016H18.6045C18.1903 4.91016 17.8545 4.57437 17.8545 4.16016Z" fill="#001323"/>
<path fill-rule="evenodd" clip-rule="evenodd" d="M9.10449 4.16016C9.10449 3.74594 9.44028 3.41016 9.85449 3.41016H14.0845C14.4987 3.41016 14.8345 3.74594 14.8345 4.16016C14.8345 4.57437 14.4987 4.91016 14.0845 4.91016H9.85449C9.44028 4.91016 9.10449 4.57437 9.10449 4.16016Z" fill="#001323"/>
<path fill-rule="evenodd" clip-rule="evenodd" d="M0.334961 4.16016C0.334961 3.74594 0.670747 3.41016 1.08496 3.41016H5.32496C5.73917 3.41016 6.07496 3.74594 6.07496 4.16016C6.07496 4.57437 5.73917 4.91016 5.32496 4.91016H1.83496V30.1902H30.855V4.91016H27.355C26.9407 4.91016 26.605 4.57437 26.605 4.16016C26.605 3.74594 26.9407 3.41016 27.355 3.41016H31.605C32.0192 3.41016 32.355 3.74594 32.355 4.16016V30.9402C32.355 31.3544 32.0192 31.6902 31.605 31.6902H1.08496C0.670747 31.6902 0.334961 31.3544 0.334961 30.9402V4.16016Z" fill="#001323"/>
<path fill-rule="evenodd" clip-rule="evenodd" d="M7.59473 0C8.00894 0 8.34473 0.335786 8.34473 0.75V6.63C8.34473 7.04421 8.00894 7.38 7.59473 7.38C7.18051 7.38 6.84473 7.04421 6.84473 6.63V0.75C6.84473 0.335786 7.18051 0 7.59473 0Z" fill="#1BA0E5"/>
<path fill-rule="evenodd" clip-rule="evenodd" d="M16.3447 0C16.7589 0 17.0947 0.335786 17.0947 0.75V6.63C17.0947 7.04421 16.7589 7.38 16.3447 7.38C15.9305 7.38 15.5947 7.04421 15.5947 6.63V0.75C15.5947 0.335786 15.9305 0 16.3447 0Z" fill="#1BA0E5"/>
<path fill-rule="evenodd" clip-rule="evenodd" d="M25.0947 0C25.5089 0 25.8447 0.335786 25.8447 0.75V6.63C25.8447 7.04421 25.5089 7.38 25.0947 7.38C24.6805 7.38 24.3447 7.04421 24.3447 6.63V0.75C24.3447 0.335786 24.6805 0 25.0947 0Z" fill="#1BA0E5"/>
<path fill-rule="evenodd" clip-rule="evenodd" d="M22.2051 11.8809C22.6193 11.8809 22.9551 12.2166 22.9551 12.6309V24.5109C22.9551 24.9251 22.6193 25.2609 22.2051 25.2609C21.7909 25.2609 21.4551 24.9251 21.4551 24.5109V12.6309C21.4551 12.2166 21.7909 11.8809 22.2051 11.8809Z" fill="#1BA0E5"/>
<path fill-rule="evenodd" clip-rule="evenodd" d="M22.7342 12.0997C23.0276 12.3921 23.0283 12.867 22.7359 13.1603L19.6259 16.2803C19.3335 16.5737 18.8586 16.5745 18.5652 16.282C18.2719 15.9896 18.2711 15.5147 18.5635 15.2214L21.6735 12.1014C21.966 11.808 22.4408 11.8073 22.7342 12.0997Z" fill="#1BA0E5"/>
<path fill-rule="evenodd" clip-rule="evenodd" d="M7.68457 12.6309C7.68457 12.2166 8.02036 11.8809 8.43457 11.8809H11.4346C13.7723 11.8809 16.0046 13.382 16.0046 15.6009C16.0046 17.8197 13.7723 19.3209 11.4346 19.3209H9.73457C9.32036 19.3209 8.98457 18.9851 8.98457 18.5709C8.98457 18.1566 9.32036 17.8209 9.73457 17.8209H11.4346C13.3169 17.8209 14.5046 16.662 14.5046 15.6009C14.5046 14.5397 13.3169 13.3809 11.4346 13.3809H8.43457C8.02036 13.3809 7.68457 13.0451 7.68457 12.6309Z" fill="#1BA0E5"/>
<path fill-rule="evenodd" clip-rule="evenodd" d="M8.9748 18.5703C8.9748 18.1561 9.31059 17.8203 9.7248 17.8203H11.4248C13.7625 17.8203 15.9948 19.3215 15.9948 21.5403C15.9948 23.7592 13.7625 25.2603 11.4248 25.2603H8.4248C8.01059 25.2603 7.6748 24.9245 7.6748 24.5103C7.6748 24.0961 8.01059 23.7603 8.4248 23.7603H11.4248C13.3071 23.7603 14.4948 22.6015 14.4948 21.5403C14.4948 20.4792 13.3071 19.3203 11.4248 19.3203H9.7248C9.31059 19.3203 8.9748 18.9845 8.9748 18.5703Z" fill="#1BA0E5"/>
</svg>
