<svg width="14" height="25" viewBox="0 0 14 25" fill="none" xmlns="http://www.w3.org/2000/svg">
<path d="M13.4212 7.67C13.375 7.61729 13.3181 7.57492 13.2543 7.54563C13.1906 7.51634 13.1214 7.50079 13.0513 7.5H9.28125V6.09C9.28125 5.81 9.34125 5.49 9.79125 5.49H12.7913C12.8573 5.49434 12.9234 5.48301 12.9842 5.45694C13.045 5.43088 13.0989 5.39081 13.1413 5.34C13.1862 5.29565 13.2218 5.24268 13.2459 5.18426C13.2699 5.12584 13.282 5.06317 13.2812 5V1C13.2812 0.867392 13.2286 0.740215 13.1348 0.646447C13.041 0.552678 12.9139 0.5 12.7812 0.5H8.45125C3.65125 0.5 3.28125 4.6 3.28125 5.85V7.5H0.78125C0.648642 7.5 0.521465 7.55268 0.427697 7.64645C0.333929 7.74021 0.28125 7.86739 0.28125 8V12C0.28125 12.1326 0.333929 12.2598 0.427697 12.3536C0.521465 12.4473 0.648642 12.5 0.78125 12.5H3.28125V24C3.28125 24.1326 3.33393 24.2598 3.4277 24.3536C3.52146 24.4473 3.64864 24.5 3.78125 24.5H8.78125C8.91386 24.5 9.04104 24.4473 9.1348 24.3536C9.22857 24.2598 9.28125 24.1326 9.28125 24V12.5H12.6313C12.7556 12.5006 12.8758 12.4549 12.9682 12.3717C13.0607 12.2884 13.1188 12.1738 13.1313 12.05L13.5413 8.05C13.5503 7.98174 13.5443 7.91232 13.5235 7.84665C13.5028 7.78099 13.4679 7.72068 13.4212 7.67Z" fill="white"/>
</svg>
