<svg width="25" height="25" viewBox="0 0 25 25" fill="none" xmlns="http://www.w3.org/2000/svg">
<path d="M23.2716 10.1436C23.2758 10.1021 23.2758 10.0602 23.2716 10.0186C22.2062 5.3757 17.8854 1.6263 13.184 1.26554C8.24488 0.887181 3.8834 3.35375 1.71927 7.77937C0.915612 9.41705 0.512514 11.1554 0.593134 12.9936C0.565692 15.1238 1.13916 17.092 2.24532 18.8908C3.98312 21.7223 6.4772 23.5052 9.70262 24.241C10.035 24.3182 10.0815 24.2318 10.0807 23.9205C10.0719 20.3034 10.0719 16.6863 10.0807 13.0691C10.0807 12.7654 10.0209 12.6639 9.69842 12.669C8.60642 12.6849 7.51353 12.6639 6.42148 12.6563C6.42148 11.4818 6.44145 10.3072 6.41069 9.13264C6.40073 8.74589 6.52041 8.6947 6.86863 8.6947C8.73689 8.71318 10.6085 8.72239 12.4734 8.6947C13.2729 8.68295 13.8422 8.94639 14.1356 9.72413L14.1705 9.98171C14.2536 10.0924 14.2245 10.2225 14.2245 10.3458V24.2485C14.2781 24.2527 14.3321 24.2527 14.3857 24.2485C16.6297 23.8551 18.4796 22.7014 20.1202 21.1837C21.6203 19.7952 22.5943 18.051 23.1586 16.0869C23.7229 14.1229 23.7877 12.1345 23.2716 10.1436ZM11.8617 7.74748C10.8337 7.79784 9.73334 6.59723 9.73168 5.4227C9.72637 5.12437 9.77996 4.82794 9.88936 4.55077C9.99872 4.27355 10.1617 4.02113 10.3687 3.80819C10.5756 3.59521 10.8226 3.426 11.0951 3.31039C11.3675 3.19478 11.6601 3.13506 11.9556 3.13478C12.5554 3.13611 13.1302 3.37739 13.5541 3.8058C13.978 4.23416 14.2163 4.81467 14.217 5.42016C14.2129 6.67022 13.1898 7.68287 11.8617 7.74748Z" fill="white"/>
</svg>
