<svg width="25" height="25" viewBox="0 0 25 25" fill="none" xmlns="http://www.w3.org/2000/svg">
<path d="M12.2812 8.5C10.0721 8.5 8.28125 10.2908 8.28125 12.5C8.28125 14.7092 10.0721 16.5 12.2812 16.5C14.4904 16.5 16.2812 14.7092 16.2812 12.5C16.2812 10.2908 14.4904 8.5 12.2812 8.5Z" fill="white"/>
<path fill-rule="evenodd" clip-rule="evenodd" d="M12.2812 23.75C9.92015 23.75 8.0089 23.6934 6.5098 23.6179C3.56475 23.4696 1.31164 21.2165 1.16334 18.2715C1.08785 16.7724 1.03125 14.8611 1.03125 12.5C1.03125 10.1389 1.08785 8.22765 1.16334 6.72855C1.31164 3.78349 3.56475 1.53039 6.5098 1.38209C8.0089 1.3066 9.92015 1.25 12.2812 1.25C14.6424 1.25 16.5536 1.3066 18.0527 1.38209C20.9977 1.53039 23.2509 3.7835 23.3992 6.72855C23.4747 8.22765 23.5312 10.1389 23.5312 12.5C23.5312 14.8611 23.4747 16.7723 23.3992 18.2715C23.2509 21.2165 20.9977 23.4696 18.0527 23.6179C16.5536 23.6934 14.6424 23.75 12.2812 23.75ZM6.28125 12.5C6.28125 9.1863 8.96755 6.5 12.2812 6.5C15.5949 6.5 18.2812 9.1863 18.2812 12.5C18.2812 15.8137 15.5949 18.5 12.2812 18.5C8.96755 18.5 6.28125 15.8137 6.28125 12.5ZM18.7812 4.5C18.229 4.5 17.7812 4.94772 17.7812 5.5C17.7812 6.0523 18.229 6.5 18.7812 6.5H19.2812C19.8335 6.5 20.2812 6.0523 20.2812 5.5C20.2812 4.94772 19.8335 4.5 19.2812 4.5H18.7812Z" fill="white"/>
</svg>
