<svg width="31" height="31" viewBox="0 0 31 31" fill="none" xmlns="http://www.w3.org/2000/svg">
<path fill-rule="evenodd" clip-rule="evenodd" d="M15.7137 2.34473C12.5767 2.34473 10.0337 4.88775 10.0337 8.02473C10.0337 11.1617 12.5767 13.7047 15.7137 13.7047C18.8507 13.7047 21.3937 11.1617 21.3937 8.02473C21.3937 4.88775 18.8507 2.34473 15.7137 2.34473ZM8.53369 8.02473C8.53369 4.05932 11.7483 0.844727 15.7137 0.844727C19.6791 0.844727 22.8937 4.05932 22.8937 8.02473C22.8937 11.9901 19.6791 15.2047 15.7137 15.2047C11.7483 15.2047 8.53369 11.9901 8.53369 8.02473Z" fill="#001323"/>
<path fill-rule="evenodd" clip-rule="evenodd" d="M3.28538 19.6134C4.73935 18.1851 6.67991 17.2646 8.58346 17.2646C8.99767 17.2646 9.33346 17.6004 9.33346 18.0146C9.33346 18.4289 8.99767 18.7646 8.58346 18.7646C7.14701 18.7646 5.56756 19.4742 4.33653 20.6834C3.112 21.8863 2.29346 23.5241 2.29346 25.3046V30.0946C2.29346 30.5089 1.95767 30.8446 1.54346 30.8446C1.12924 30.8446 0.793457 30.5089 0.793457 30.0946V25.3046C0.793457 23.0552 1.82492 21.048 3.28538 19.6134Z" fill="#1BA0E5"/>
<path fill-rule="evenodd" clip-rule="evenodd" d="M22.1138 18.0146C22.1138 17.6004 22.4496 17.2646 22.8638 17.2646C24.7673 17.2646 26.7079 18.1851 28.1618 19.6134C29.6223 21.048 30.6538 23.0552 30.6538 25.3046V30.0946C30.6538 30.5089 30.318 30.8446 29.9038 30.8446C29.4896 30.8446 29.1538 30.5089 29.1538 30.0946V25.3046C29.1538 23.5241 28.3352 21.8863 27.1107 20.6834C25.8797 19.4742 24.3002 18.7646 22.8638 18.7646C22.4496 18.7646 22.1138 18.4289 22.1138 18.0146Z" fill="#1BA0E5"/>
<path fill-rule="evenodd" clip-rule="evenodd" d="M6.11377 26.8646C6.11377 21.5604 10.4096 17.2646 15.7138 17.2646C21.018 17.2646 25.3138 21.5604 25.3138 26.8646V30.0946C25.3138 30.5089 24.978 30.8446 24.5638 30.8446C24.1496 30.8446 23.8138 30.5089 23.8138 30.0946V26.8646C23.8138 22.3889 20.1896 18.7646 15.7138 18.7646C11.238 18.7646 7.61377 22.3889 7.61377 26.8646V30.0946C7.61377 30.5089 7.27798 30.8446 6.86377 30.8446C6.44956 30.8446 6.11377 30.5089 6.11377 30.0946V26.8646Z" fill="#001323"/>
</svg>
