<svg width="30" height="31" viewBox="0 0 30 31" fill="none" xmlns="http://www.w3.org/2000/svg">
<path d="M29.25 30.8447H0.75C0.34 30.8447 0 30.5047 0 30.0947C0 29.6847 0.34 29.3447 0.75 29.3447H29.25C29.66 29.3447 30 29.6847 30 30.0947C30 30.5047 29.66 30.8447 29.25 30.8447Z" fill="#1BA0E5"/>
<path d="M14.9301 9.07471H12.0901C11.6801 9.07471 11.3401 8.73471 11.3401 8.32471C11.3401 7.91471 11.6801 7.57471 12.0901 7.57471H14.9301C15.3401 7.57471 15.6801 7.91471 15.6801 8.32471C15.6801 8.73471 15.3401 9.07471 14.9301 9.07471Z" fill="#001323"/>
<path d="M14.9301 12.3547H12.0901C11.6801 12.3547 11.3401 12.0147 11.3401 11.6047C11.3401 11.1947 11.6801 10.8547 12.0901 10.8547H14.9301C15.3401 10.8547 15.6801 11.1947 15.6801 11.6047C15.6801 12.0147 15.3401 12.3547 14.9301 12.3547Z" fill="#001323"/>
<path d="M15 27.8447C14.59 27.8447 14.25 27.5047 14.25 27.0947V21.2947C14.25 20.8847 14.59 20.5447 15 20.5447C15.41 20.5447 15.75 20.8847 15.75 21.2947V27.0947C15.75 27.5047 15.41 27.8447 15 27.8447Z" fill="#001323"/>
<path d="M15 18.7647C11.69 18.7647 9 16.0747 9 12.7647V6.84473C9 3.53473 11.69 0.844727 15 0.844727C18.31 0.844727 21 3.53473 21 6.84473V12.7647C21 16.0747 18.31 18.7647 15 18.7647ZM15 2.34473C12.52 2.34473 10.5 4.36473 10.5 6.84473V12.7647C10.5 15.2447 12.52 17.2647 15 17.2647C17.48 17.2647 19.5 15.2447 19.5 12.7647V6.84473C19.5 4.36473 17.48 2.34473 15 2.34473Z" fill="#001323"/>
</svg>
