<svg width="130" height="130" viewBox="0 0 130 130" fill="none" xmlns="http://www.w3.org/2000/svg">
<path opacity="0.7" d="M64.7607 129.087C100.314 129.087 129.135 100.266 129.135 64.7129C129.135 29.1601 100.314 0.338867 64.7607 0.338867C29.208 0.338867 0.386719 29.1601 0.386719 64.7129C0.386719 100.266 29.208 129.087 64.7607 129.087Z" fill="#EEF2F5"/>
<path d="M52.7095 90.4624C52.2344 90.4624 51.7593 90.347 51.3238 90.1163C50.3737 89.6164 49.7402 88.6549 49.7402 87.5782V39.6999C49.7402 38.6231 50.3341 37.6617 51.3238 37.1618C52.274 36.6619 53.4617 36.7003 54.3723 37.3156L91.3498 61.2355C92.1812 61.7739 92.6562 62.6584 92.6562 63.6198C92.6562 64.5812 92.1416 65.4657 91.3498 66.0041L54.3723 89.924C53.8576 90.2317 53.3034 90.424 52.7095 90.424V90.4624ZM55.6788 45.0838V82.1943L84.3423 63.6583L55.6788 45.1223V45.0838Z" fill="#00141D"/>
</svg>
