<svg width="25" height="25" viewBox="0 0 25 25" fill="none" xmlns="http://www.w3.org/2000/svg">
<g clip-path="url(#clip0_1026_2665)">
<path fill-rule="evenodd" clip-rule="evenodd" d="M12.2813 24.5C5.65384 24.5 0.28125 19.1274 0.28125 12.5C0.28125 5.87259 5.65384 0.5 12.2813 0.5C18.9087 0.5 24.2813 5.87259 24.2813 12.5C24.2813 19.1274 18.9087 24.5 12.2813 24.5ZM13.1536 6.69819C10.7671 6.47712 8.23042 6.81509 5.98226 7.81184C5.4437 8.05056 5.20066 8.68075 5.43944 9.21925C5.67821 9.75781 6.30834 10.0009 6.8469 9.76208C8.72525 8.92928 10.8911 8.63104 12.9568 8.8224C15.0356 9.01499 17.0405 9.70619 18.5642 10.8783C19.0312 11.2374 19.7009 11.1501 20.0601 10.6831C20.4192 10.2162 20.3319 9.54651 19.8649 9.18731C17.9595 7.72165 15.5481 6.91995 13.1536 6.69819ZM6.66328 12.019C8.51704 11.1413 10.6247 10.8428 12.5999 11.0291C14.5317 11.2113 16.4851 11.8724 18.0297 13.0896C18.4925 13.4542 18.572 14.1249 18.2073 14.5876C17.8427 15.0503 17.172 15.1298 16.7093 14.7652C15.5482 13.8502 14.0075 13.3047 12.3996 13.153C10.7603 12.9984 9.04376 13.2523 7.57629 13.9471C7.04386 14.1993 6.40786 13.9721 6.15576 13.4396C5.90365 12.9072 6.13085 12.2712 6.66328 12.019ZM12.0479 15.3842C10.5898 15.2423 9.03373 15.4599 7.65 16.1093C7.11672 16.3595 6.88722 16.9947 7.13746 17.528C7.38776 18.0613 8.02296 18.2908 8.55624 18.0405C9.55709 17.5709 10.7232 17.3987 11.8414 17.5075C12.9687 17.6171 14.0371 18.0113 14.8336 18.6599C15.2905 19.0318 15.9623 18.9631 16.3343 18.5063C16.7063 18.0494 16.6375 17.3776 16.1807 17.0056C15.0002 16.0444 13.5117 15.5265 12.0479 15.3842Z" fill="white"/>
</g>
<defs>
<clipPath id="clip0_1026_2665">
<rect width="24" height="24" fill="white" transform="translate(0.28125 0.5)"/>
</clipPath>
</defs>
</svg>
