<svg width="31" height="32" viewBox="0 0 31 32" fill="none" xmlns="http://www.w3.org/2000/svg">
<path d="M22.888 31.0999H8.66797C8.25797 31.0999 7.91797 30.7599 7.91797 30.3499C7.91797 29.9399 8.25797 29.5999 8.66797 29.5999H22.888C23.298 29.5999 23.638 29.9399 23.638 30.3499C23.638 30.7599 23.298 31.0999 22.888 31.0999Z" fill="#1BA0E5"/>
<path d="M30.208 27.3798H1.18799C0.777988 27.3798 0.437988 27.0398 0.437988 26.6298V1.33984C0.437988 0.929843 0.777988 0.589844 1.18799 0.589844H30.208C30.618 0.589844 30.958 0.929843 30.958 1.33984V26.6298C30.958 27.0398 30.618 27.3798 30.208 27.3798ZM1.93799 25.8798H29.458V2.08984H1.93799V25.8798Z" fill="#001323"/>
<path d="M12.1978 20.9603C12.0778 20.9603 11.9578 20.9303 11.8478 20.8703C11.6078 20.7403 11.4478 20.4903 11.4478 20.2103V7.7603C11.4478 7.4803 11.5978 7.2303 11.8478 7.1003C12.0878 6.9703 12.3878 6.9803 12.6178 7.1403L21.9578 13.3603C22.1678 13.5003 22.2878 13.7303 22.2878 13.9803C22.2878 14.2303 22.1578 14.4603 21.9578 14.6003L12.6178 20.8203C12.4878 20.9003 12.3478 20.9503 12.1978 20.9503V20.9603ZM12.9478 9.1603V18.8103L20.1878 13.9903L12.9478 9.1703V9.1603Z" fill="#1BA0E5"/>
</svg>
