<svg width="191" height="79" viewBox="0 0 191 79" fill="none" xmlns="http://www.w3.org/2000/svg">
<g clip-path="url(#clip0_267_1029)">
<path d="M31.7178 10.5364C44.2128 10.5364 54.3643 20.9642 54.3643 33.409V39.143H62.567V31.3285C62.567 14.3803 48.7345 0.184805 31.7178 0.172119V10.5364Z" fill="white"/>
<path d="M31.7178 30.3392C35.5644 30.3392 38.6977 33.5487 38.6977 37.3798V39.1431H45.8814V35.553C45.8814 27.7766 39.5383 21.2561 31.7178 21.2561V30.3392Z" fill="white"/>
<path d="M31.7174 67.7491C19.2223 67.7491 9.07084 57.3214 9.07084 44.8766V39.1426H0.868164V46.9571C0.868164 63.9053 14.7006 78.1008 31.7174 78.1135V67.7491Z" fill="white"/>
<path d="M31.7178 47.9466C27.8712 47.9466 24.7379 44.737 24.7379 40.9059V39.1426H17.5542V42.7327C17.5542 50.5091 23.8973 57.0296 31.7178 57.0296V47.9466Z" fill="white"/>
<path d="M31.7174 10.5364C19.2223 10.5364 9.07084 20.9642 9.07084 33.409V39.143H0.868164V31.3285C0.868164 14.3803 14.7006 0.184805 31.7174 0.172119V10.5364Z" fill="white" fill-opacity="0.2"/>
<path d="M31.7178 30.3392C27.8712 30.3392 24.7379 33.5487 24.7379 37.3798V39.1431H17.5542V35.553C17.5542 27.7766 23.8973 21.2561 31.7178 21.2561V30.3392Z" fill="white" fill-opacity="0.2"/>
<path d="M54.0454 60.3792V47.0464H60.1083V48.0739H55.2045V52.8692H59.6625V53.8967H55.2045V59.339H60.1974V60.3665H54.0454V60.3792Z" fill="white"/>
<path d="M65.5597 53.1102C67.5212 53.9221 68.9859 54.531 68.9859 56.954C68.9859 59.2502 67.483 60.7091 65.1521 60.7091C62.8212 60.7091 61.4201 58.9838 61.4711 56.6242H62.6174C62.6047 58.2987 63.2925 59.6815 65.1266 59.6815C66.7442 59.6815 67.8269 58.654 67.8269 56.9921C67.8269 54.9877 66.3621 54.6706 64.8337 54.0617C63.0377 53.3513 61.7513 52.5521 61.7513 50.4208C61.7513 48.2896 63.0505 46.7419 65.2285 46.7419C67.4065 46.7419 68.693 48.1754 68.642 50.2813H67.5212C67.5976 48.8097 66.7187 47.7822 65.2158 47.7822C63.7128 47.7822 62.9104 48.8985 62.9104 50.3574C62.9104 51.6767 63.3434 52.1842 64.5407 52.7043L65.5724 53.1356L65.5597 53.1102Z" fill="white"/>
<path d="M71.0366 60.3792V47.0464H73.4057C76.4244 47.0464 77.9146 47.7949 77.9146 50.535C77.9146 51.8163 77.609 52.7931 76.832 53.4274C75.9786 54.1505 74.5011 54.3534 73.9661 54.3534H72.1957V60.3792H71.0366ZM72.1957 53.3259H73.2019C75.2653 53.3259 76.7683 53.0214 76.7683 50.6365C76.7683 48.6067 75.7366 48.112 73.9025 48.0739H72.2084V53.3132L72.1957 53.3259Z" fill="white"/>
<path d="M83.0732 47.0464L86.6651 60.3792H85.4933L84.4361 56.269H80.3729L79.2903 60.3792H78.1694L81.7613 47.0464H83.0987H83.0732ZM84.1813 55.2414L82.4109 48.5053H82.3727L80.6022 55.2414H84.1686H84.1813Z" fill="white"/>
<path d="M95.632 55.8631C95.683 58.1338 94.5239 60.6964 91.8491 60.6964C87.9771 60.6964 87.9771 56.1675 87.9771 53.3386C87.9771 50.5096 88.3337 46.7292 91.8873 46.7292C94.2946 46.7292 95.5047 48.6321 95.5301 50.8902H94.3711C94.2692 49.3045 93.6578 47.7695 91.8491 47.7695C89.0342 47.7695 89.1361 51.8163 89.1361 53.6177C89.1361 55.6601 89.0342 59.6815 91.9765 59.6815C93.9762 59.6815 94.422 57.5122 94.473 55.8757H95.632V55.8631Z" fill="white"/>
<path d="M98.1792 60.3792V47.0464H99.3383V60.3792H98.1792Z" fill="white"/>
<path d="M101.758 53.3386C101.758 50.5984 102.128 46.7292 105.681 46.7292C109.604 46.7292 109.63 51.1059 109.63 53.9982C109.63 56.8906 109.413 60.6964 105.656 60.6964C101.898 60.6964 101.771 56.1675 101.771 53.3386H101.758ZM108.471 53.7318C108.471 51.7782 108.483 47.7568 105.63 47.7568C102.93 47.7568 102.917 51.6894 102.917 53.605C102.917 55.6474 102.815 59.6688 105.758 59.6688C108.7 59.6688 108.471 55.622 108.471 53.7318Z" fill="white"/>
<path d="M60.8476 65.7576V67.8507H56.3004V70.8319H60.5801V72.9251H56.3004V78.4307H53.7275V65.7449H60.8476V65.7576Z" fill="white"/>
<path d="M64.4005 74.5996C64.4005 74.9167 64.426 75.2085 64.4642 75.4749C64.5024 75.7413 64.5788 75.9697 64.6934 76.1726C64.8081 76.3629 64.9609 76.5278 65.152 76.6293C65.343 76.7435 65.5978 76.7943 65.8907 76.7943C66.1837 76.7943 66.4512 76.7435 66.6422 76.6293C66.8333 76.5152 66.9861 76.3629 67.1007 76.1726C67.2154 75.9824 67.2918 75.7413 67.33 75.4749C67.3682 75.2085 67.3937 74.9167 67.3937 74.5996V65.7576H69.9666V74.5996C69.9666 75.3988 69.852 76.0712 69.6227 76.604C69.3934 77.1368 69.0877 77.5427 68.7184 77.8599C68.349 78.177 67.9032 78.38 67.4192 78.4815C66.9352 78.583 66.4257 78.6464 65.9035 78.6464C65.3812 78.6464 64.8718 78.5956 64.3877 78.5068C63.9037 78.418 63.4707 78.2151 63.0886 77.9233C62.7065 77.6315 62.4008 77.2256 62.1842 76.6928C61.9677 76.16 61.8403 75.4622 61.8403 74.6123V65.7703H64.4132V74.6123L64.4005 74.5996Z" fill="white"/>
<path d="M77.6473 74.4474H77.6855V65.7576H80.0419V78.4434H77.1124L73.979 69.5633H73.9408V78.4434H71.5845V65.7576H74.5395L77.6473 74.4474Z" fill="white"/>
<path d="M86.1559 65.7576C87.0475 65.7576 87.7608 65.8971 88.3085 66.1889C88.8562 66.4807 89.2765 66.8993 89.5822 67.4321C89.8879 67.9649 90.0917 68.6246 90.1936 69.373C90.2955 70.1342 90.3591 70.9714 90.3591 71.9102C90.3591 73.0265 90.2955 73.9907 90.1554 74.8153C90.0152 75.6398 89.786 76.3122 89.4548 76.845C89.1237 77.3778 88.6779 77.7711 88.1174 78.0375C87.557 78.3039 86.8565 78.4307 85.9903 78.4307H81.9399V65.7449H86.1432L86.1559 65.7576ZM85.6592 76.5532C86.105 76.5532 86.4743 76.4771 86.7418 76.3249C87.0093 76.1726 87.2258 75.9189 87.3914 75.5637C87.557 75.2085 87.6589 74.7391 87.7098 74.1556C87.7608 73.572 87.7863 72.8489 87.7863 71.9863C87.7863 71.2632 87.7608 70.6289 87.7098 70.0834C87.6589 69.5379 87.5697 69.0813 87.4169 68.726C87.264 68.3708 87.0475 68.0918 86.7546 67.9142C86.4616 67.7366 86.0795 67.6351 85.5827 67.6351H84.5001V76.5532H85.6464H85.6592Z" fill="white"/>
<path d="M97.7079 65.7576L101.083 78.4434H98.4085L97.8226 75.7667H94.4345L93.8486 78.4434H91.1738L94.5492 65.7576H97.7207H97.7079ZM97.364 73.6608L96.1286 67.9649H96.0903L94.8548 73.6608H97.3513H97.364Z" fill="white"/>
<path d="M107.082 68.0159C106.866 67.5973 106.458 67.3816 105.872 67.3816C105.554 67.3816 105.286 67.4704 105.082 67.6354C104.879 67.813 104.713 68.0794 104.598 68.4726C104.484 68.8532 104.395 69.3606 104.344 69.9822C104.293 70.6038 104.267 71.365 104.267 72.2657C104.267 73.2298 104.305 74.0036 104.369 74.5872C104.433 75.1834 104.535 75.6401 104.675 75.9573C104.815 76.2871 104.98 76.5028 105.197 76.6169C105.401 76.7311 105.643 76.7818 105.923 76.7818C106.152 76.7818 106.356 76.7438 106.56 76.6677C106.764 76.5916 106.929 76.4393 107.069 76.211C107.209 75.9826 107.324 75.6528 107.413 75.2342C107.502 74.8155 107.541 74.2574 107.541 73.5723H110.113C110.113 74.2574 110.063 74.9043 109.948 75.5259C109.833 76.1476 109.642 76.6804 109.349 77.137C109.056 77.5937 108.649 77.9616 108.114 78.2153C107.579 78.4691 106.904 78.6086 106.05 78.6086C105.082 78.6086 104.318 78.4564 103.745 78.1519C103.172 77.8475 102.739 77.4034 102.433 76.8199C102.127 76.2364 101.936 75.5513 101.847 74.7394C101.758 73.9402 101.72 73.0522 101.72 72.0754C101.72 71.0986 101.771 70.236 101.847 69.4241C101.936 68.6122 102.127 67.9144 102.433 67.3309C102.739 66.7473 103.172 66.3033 103.745 65.9735C104.318 65.6437 105.082 65.4788 106.05 65.4788C107.018 65.4788 107.693 65.631 108.216 65.9228C108.738 66.2145 109.145 66.5951 109.4 67.0518C109.668 67.5085 109.82 68.0032 109.884 68.5234C109.948 69.0562 109.986 69.5382 109.986 70.0076H107.413C107.413 69.0815 107.299 68.4092 107.082 67.9906V68.0159Z" fill="white"/>
<path d="M111.668 65.7576H114.241V78.4434H111.668V65.7576Z" fill="white"/>
<path d="M116.011 69.4491C116.1 68.6372 116.291 67.9395 116.597 67.356C116.903 66.7724 117.336 66.3284 117.909 65.9986C118.482 65.6687 119.246 65.5038 120.214 65.5038C121.182 65.5038 121.947 65.6687 122.52 65.9986C123.093 66.3284 123.526 66.7724 123.832 67.356C124.137 67.9395 124.328 68.6372 124.418 69.4491C124.507 70.261 124.545 71.149 124.545 72.1005C124.545 73.0519 124.494 73.9653 124.418 74.7645C124.328 75.5637 124.137 76.2614 123.832 76.845C123.526 77.4285 123.093 77.8725 122.52 78.177C121.947 78.4814 121.182 78.6337 120.214 78.6337C119.246 78.6337 118.482 78.4814 117.909 78.177C117.336 77.8725 116.903 77.4285 116.597 76.845C116.291 76.2614 116.1 75.5764 116.011 74.7645C115.922 73.9653 115.884 73.0773 115.884 72.1005C115.884 71.1237 115.935 70.261 116.011 69.4491ZM118.508 74.2824C118.546 74.8787 118.635 75.3607 118.762 75.7413C118.89 76.1219 119.068 76.3883 119.297 76.5532C119.527 76.7308 119.832 76.8069 120.214 76.8069C120.596 76.8069 120.902 76.7181 121.131 76.5532C121.361 76.3883 121.539 76.1092 121.666 75.7413C121.794 75.3734 121.87 74.8787 121.921 74.2824C121.959 73.6862 121.985 72.9631 121.985 72.1132C121.985 71.2632 121.959 70.5401 121.921 69.9439C121.883 69.3476 121.794 68.8656 121.666 68.485C121.539 68.1044 121.361 67.8253 121.131 67.6604C120.902 67.4828 120.596 67.4067 120.214 67.4067C119.832 67.4067 119.527 67.4955 119.297 67.6604C119.068 67.8253 118.89 68.1044 118.762 68.485C118.635 68.8656 118.559 69.3476 118.508 69.9439C118.469 70.5401 118.444 71.2632 118.444 72.1132C118.444 72.9631 118.469 73.6862 118.508 74.2824ZM122.482 62.4592L120.737 65.0218H119.055L120.023 62.4592H122.482Z" fill="white"/>
<path d="M132.123 74.4474H132.162V65.7576H134.518V78.4434H131.588L128.455 69.5633H128.417V78.4434H126.061V65.7576H129.016L132.123 74.4474Z" fill="white"/>
<path d="M144.453 65.7576L146.274 74.7138H146.313L148.147 65.7576H151.942V78.4434H149.586V68.3201H149.548L147.281 78.4434H145.281L143.014 68.3201H142.975V78.4434H140.619V65.7576H144.44H144.453Z" fill="white"/>
<path d="M156.184 74.5996C156.184 74.9167 156.21 75.2085 156.248 75.4749C156.286 75.7413 156.362 75.9697 156.477 76.1726C156.592 76.3629 156.745 76.5278 156.936 76.6293C157.127 76.7435 157.381 76.7943 157.674 76.7943C157.967 76.7943 158.235 76.7435 158.426 76.6293C158.617 76.5152 158.77 76.3629 158.884 76.1726C158.999 75.9824 159.075 75.7413 159.114 75.4749C159.152 75.2085 159.177 74.9167 159.177 74.5996V65.7576H161.75V74.5996C161.75 75.3988 161.636 76.0712 161.406 76.604C161.177 77.1368 160.871 77.5427 160.502 77.8599C160.133 78.177 159.687 78.38 159.203 78.4815C158.719 78.583 158.209 78.6464 157.687 78.6464C157.165 78.6464 156.655 78.5956 156.171 78.5068C155.687 78.418 155.254 78.2151 154.872 77.9233C154.49 77.6315 154.184 77.2256 153.968 76.6928C153.751 76.16 153.624 75.4622 153.624 74.6123V65.7703H156.197V74.6123L156.184 74.5996Z" fill="white"/>
<path d="M170.819 67.8507H168.042V78.4307H165.469V67.8507H162.692V65.7576H170.819V67.8507Z" fill="white"/>
<path d="M174.335 74.5996C174.335 74.9167 174.36 75.2085 174.398 75.4749C174.436 75.7413 174.513 75.9697 174.628 76.1726C174.742 76.3629 174.895 76.5278 175.086 76.6293C175.277 76.7435 175.532 76.7943 175.825 76.7943C176.118 76.7943 176.385 76.7435 176.576 76.6293C176.767 76.5152 176.92 76.3629 177.035 76.1726C177.149 75.9824 177.226 75.7413 177.264 75.4749C177.302 75.2085 177.328 74.9167 177.328 74.5996V65.7576H179.901V74.5996C179.901 75.3988 179.786 76.0712 179.557 76.604C179.328 77.1368 179.022 77.5427 178.652 77.8599C178.283 78.177 177.837 78.38 177.353 78.4815C176.869 78.583 176.36 78.6464 175.838 78.6464C175.315 78.6464 174.806 78.5956 174.322 78.5068C173.838 78.418 173.405 78.2151 173.023 77.9233C172.641 77.6315 172.335 77.2256 172.118 76.6928C171.902 76.16 171.774 75.4622 171.774 74.6123V65.7703H174.347V74.6123L174.335 74.5996Z" fill="white"/>
<path d="M187.173 65.7576L190.549 78.4434H187.874L187.288 75.7667H183.9L183.314 78.4434H180.639L184.014 65.7576H187.186H187.173ZM186.829 73.6608L185.594 67.9649H185.556L184.32 73.6608H186.817H186.829Z" fill="white"/>
</g>
<defs>
<clipPath id="clip0_267_1029">
<rect width="189.668" height="78.4619" fill="white" transform="translate(0.868164 0.172119)"/>
</clipPath>
</defs>
</svg>
